PathFileType	4	(X/Y/Z)	./resultDataOpenSim/trcMotMarkerGrf/sub06/qtm-03-01.trc
DataRate	CameraRate	NumFrames	NumMarkers	Units	OrigDataRate	OrigDataStartFrame	OrigNumFrames
250.000000	250.000000	12	24	m	250.000000	1	496
Frame#	Time	L.Toe.Tip			R.Toe.Tip			L.Ankle.Lat			R.Ankle.Lat			L.Ankle.Med			R.Ankle.Med			L.Heel			R.Heel			L.Knee.Lat			R.Knee.Lat			L.Knee.Med			R.Knee.Med			L.Thigh.Upper			R.Thigh.Upper			L.ASIS			R.ASIS			V.Sacral			L.Acromium			R.Acromium			C7			L.Elbow			R.Elbow			L.Wrist.Lat			R.Wrist.Lat
		X1	Y1	Z1	X2	Y2	Z2	X3	Y3	Z3	X4	Y4	Z4	X5	Y5	Z5	X6	Y6	Z6	X7	Y7	Z7	X8	Y8	Z8	X9	Y9	Z9	X10	Y10	Z10	X11	Y11	Z11	X12	Y12	Z12	X13	Y13	Z13	X14	Y14	Z14	X15	Y15	Z15	X16	Y16	Z16	X17	Y17	Z17	X18	Y18	Z18	X19	Y19	Z19	X20	Y20	Z20	X21	Y21	Z21	X22	Y22	Z22	X23	Y23	Z23	X24	Y24	Z24

1	0	-1.6029865	0.032183939	-0.039077093	-0.91419283	0.11569901	0.16660716	-1.7125548	0.088555583	-0.05436813	-1.0453061	0.086082212	0.17606698	-1.7014638	0.10093275	0.029462624	-1.0328153	0.11847177	0.093221295	NaN	NaN	NaN	-1.0795271	0.044741739	0.10218884	-1.5254788	0.41051524	-0.072051288	-1.1830967	0.45085893	0.1825763	-1.5347274	0.41269809	0.047950067	-1.1951301	0.42678719	0.052964403	-1.4087862	0.77795659	-0.13257927	-1.3737421	0.77256943	0.21424304	-1.319448	0.81569252	-0.09822128	-1.2868066	0.82360586	0.14820849	-1.4810649	0.90324336	0.054157767	-1.3197919	1.3034066	-0.14846849	-1.3388361	1.2881151	0.21480451	-1.4029231	1.3407499	0.030443144	-1.3037178	0.98214515	-0.22412222	-1.4822829	1.0054745	0.26072907	-1.0913184	0.85796502	-0.18303106	-1.3997966	0.77726037	0.29505076
2	0.004	-1.6029184	0.032167113	-0.039129937	-0.90366947	0.11853998	0.16578306	-1.7117116	0.089689876	-0.05474751	-1.0341846	0.086541257	0.17550775	-1.7007436	0.1020465	0.029104807	-1.0222026	0.11915806	0.092568589	NaN	NaN	NaN	-1.0678672	0.044545088	0.10168009	-1.5215219	0.41006984	-0.072273603	-1.175839	0.44972448	0.18245614	-1.5305802	0.41210853	0.047754547	-1.1883415	0.4249823	0.052349732	-1.4029628	0.77662927	-0.13227566	-1.3661127	0.77097687	0.21444599	-1.3130639	0.81424813	-0.098128972	-1.2797955	0.82220447	0.14805376	-1.4744244	0.90198004	0.054577377	-1.3134459	1.3020775	-0.14795395	-1.3329901	1.2867969	0.21539528	-1.3967595	1.3394377	0.030760329	-1.2959904	0.98080543	-0.22346055	-1.4762893	1.0037064	0.26058838	-1.0829627	0.85801888	-0.18139226	-1.3933008	0.77603929	0.29586328
3	0.008	-1.6028368	0.032155948	-0.039191308	-0.8935324	0.120932	0.16492973	-1.7107932	0.09091464	-0.055126758	-1.0234844	0.086871212	0.17484491	-1.7010056	0.10301564	0.029112981	-1.011976	0.11970978	0.091844741	NaN	NaN	NaN	-1.0567075	0.044313728	0.10107905	-1.5174441	0.40960295	-0.07250717	-1.1685345	0.44861791	0.18236079	-1.5261947	0.41154072	0.047550671	-1.1814518	0.42330505	0.051728574	-1.3970998	0.77532257	-0.13198182	-1.3584151	0.76945113	0.21465016	-1.3067295	0.81284058	-0.098083771	-1.2726932	0.82083349	0.14789121	-1.4677525	0.9007279	0.054943535	-1.3070739	1.3007708	-0.14742015	-1.3270907	1.2854893	0.2159776	-1.3905402	1.3381434	0.031163839	-1.2882898	0.97948199	-0.22277519	-1.4702202	1.0020524	0.26044915	-1.0746692	0.85805991	-0.17978028	-1.3873002	0.77475084	0.2965633
4	0.012	-1.6027362	0.032154564	-0.039264995	-0.88398336	0.12258218	0.16403033	-1.7097866	0.092254713	-0.055502382	-1.0134413	0.086978351	0.17402298	-1.7026421	0.10378788	0.029618275	-1.0023474	0.12002928	0.091001608	NaN	NaN	NaN	-1.0463565	0.044013069	0.10034155	-1.513158	0.40910709	-0.072758208	-1.1611288	0.44755347	0.18227197	-1.5215317	0.41097994	0.047337903	-1.1744064	0.42185739	0.051124711	-1.3911621	0.7740408	-0.1316931	-1.3506264	0.76802163	0.21483867	-1.3004538	0.81147126	-0.098118153	-1.2654588	0.81950046	0.14772279	-1.4610181	0.89949678	0.055235848	-1.3006584	1.2994949	-0.14685894	-1.3211036	1.2842023	0.21656203	-1.3842428	1.3368724	0.031644634	-1.280625	0.97818793	-0.22205305	-1.4639543	1.0004709	0.26034824	-1.066463	0.85807975	-0.17819454	-1.3818138	0.77340033	0.29715503
5	0.016	-1.6026179	0.032163399	-0.039349298	-0.87505028	0.12338861	0.16306409	-1.7086973	0.093684958	-0.055882292	-1.0041148	0.086814571	0.17305521	-1.7046567	0.10456821	0.030257755	-0.9933801	0.12005573	0.090028552	NaN	NaN	NaN	-1.0369286	0.043595366	0.099480681	-1.508643	0.40859329	-0.073014898	-1.1535698	0.44654268	0.18215205	-1.5166625	0.41037892	0.047121885	-1.1672174	0.42070579	0.050571616	-1.3851401	0.77278605	-0.13139729	-1.3427267	0.76670069	0.21501	-1.2942199	0.81010859	-0.098242618	-1.2581077	0.81820175	0.1475482	-1.4542197	0.89829245	0.055463828	-1.2942014	1.2982514	-0.14627049	-1.3150278	1.2829461	0.21716212	-1.377883	1.335631	0.032148622	-1.2730109	0.97693411	-0.22129849	-1.4573787	0.99881511	0.26043621	-1.0583534	0.85807349	-0.17662029	-1.3765394	0.77203747	0.29771224
6	0.02	-1.6024836	0.032178297	-0.039441129	-0.8666768	0.12337516	0.16198098	-1.7074964	0.095187828	-0.056293665	-0.99547941	0.086358403	0.17198778	-1.7053009	0.10569658	0.030423267	-0.9850749	0.11974657	0.088941188	NaN	NaN	NaN	-1.028386	0.042999541	0.098507342	-1.5038978	0.40807459	-0.073262111	-1.1458211	0.44560347	0.18197628	-1.511561	0.40970921	0.046901456	-1.1599145	0.41988544	0.050080053	-1.3790341	0.77156671	-0.1310876	-1.3346962	0.76550641	0.2151763	-1.2879982	0.80871595	-0.0984553	-1.2506681	0.81693705	0.14735473	-1.4473656	0.89711263	0.055651725	-1.2877041	1.2970421	-0.14565796	-1.3088718	1.2817258	0.21778327	-1.3714719	1.33443	0.032661113	-1.2654561	0.97572477	-0.22051465	-1.4504482	0.99699834	0.26094138	-1.0503341	0.85803459	-0.17505024	-1.3712104	0.77070056	0.29828434
7	0.024	-1.6023359	0.032193104	-0.039538259	-0.85882008	0.12261824	0.16071141	-1.7061438	0.096767476	-0.056760358	-0.98751695	0.085597052	0.1708464	-1.7038663	0.10727934	0.029891988	-0.97743247	0.11907037	0.087756849	NaN	NaN	NaN	-1.0206147	0.042175033	0.097403381	-1.498892	0.40754708	-0.073498205	-1.1379162	0.44475186	0.18172455	-1.5062011	0.40899227	0.046672418	-1.1525138	0.41940387	0.049650453	-1.3728485	0.77039309	-0.130765	-1.3264589	0.76447748	0.21536079	-1.2817457	0.80730136	-0.098714851	-1.243164	0.81571258	0.14712802	-1.4404546	0.89595407	0.055826022	-1.2811672	1.2958734	-0.14502599	-1.3026428	1.2805432	0.2184273	-1.3650093	1.3332681	0.033205296	-1.2579621	0.9745596	-0.21969345	-1.4432823	0.99513183	0.2619167	-1.0423902	0.85795995	-0.17349065	-1.365721	0.76940811	0.29888187
8	0.028	-1.6021782	0.032204358	-0.039638045	-0.85150298	0.12120821	0.1591963	-1.7046355	0.098426024	-0.05727426	-0.9802426	0.08452417	0.16962876	-1.7010761	0.10914797	0.028933588	-0.9704662	0.11800687	0.086480465	NaN	NaN	NaN	-1.0135693	0.041099205	0.096194031	-1.4935949	0.40699414	-0.073727776	-1.1299316	0.44399615	0.18137494	-1.500675	0.40826206	0.046435535	-1.1450103	0.41924036	0.049291218	-1.3665887	0.76927093	-0.13043235	-1.3177076	0.7637044	0.21564487	-1.2753977	0.80593712	-0.098916043	-1.235593	0.81454115	0.14686996	-1.4334838	0.89481603	0.05598838	-1.2745917	1.2947558	-0.14437179	-1.2963411	1.2794003	0.21909613	-1.3584879	1.3321262	0.033822994	-1.2505318	0.97343989	-0.21883044	-1.4361598	0.99345347	0.26308937	-1.0345104	0.85785634	-0.17195201	-1.3600704	0.76816456	0.29950692
9	0.032	-1.6020108	0.032213562	-0.039737278	-0.84481188	0.11924108	0.15740875	-1.7030116	0.10015215	-0.057803116	-0.97367788	0.083144234	0.16833733	-1.6980925	0.11111306	0.027913204	-0.96419083	0.11654915	0.085112142	NaN	NaN	NaN	-1.0073469	0.039763856	0.094989755	-1.4880288	0.40640585	-0.073959329	-1.1219039	0.44334116	0.18091745	-1.4950425	0.40752588	0.046192753	-1.137386	0.41935149	0.049011676	-1.3602562	0.76819827	-0.13008702	-1.3080447	0.76330804	0.21614936	-1.2689003	0.80470125	-0.098967753	-1.2279219	0.81344211	0.14659907	-1.4264658	0.89369656	0.056100634	-1.2679679	1.2936986	-0.14368017	-1.2899597	1.2783002	0.21978894	-1.3518966	1.3309868	0.03456217	-1.2431725	0.97237037	-0.21793298	-1.4293015	0.9920838	0.2640935	-1.0267113	0.85772994	-0.1704467	-1.3542849	0.76696933	0.3001638
10	0.036	-1.6018308	0.032225062	-0.039833938	-0.83884159	0.11681079	0.15535413	-1.7013099	0.10193544	-0.058331629	-0.96782184	0.08147049	0.16699026	-1.695713	0.11309115	0.027034732	-0.95861144	0.11470822	0.083659482	NaN	NaN	NaN	-1.0020526	0.038153076	0.093892458	-1.4822488	0.40578233	-0.074206019	-1.1138128	0.44278603	0.18035602	-1.4892303	0.40677046	0.045947874	-1.1296282	0.41967811	0.048822636	-1.3538456	0.76716756	-0.12971507	-1.2975619	0.76328339	0.2168916	-1.2622456	0.80360553	-0.09889023	-1.2201284	0.81243036	0.1463335	-1.4194023	0.89259028	0.056154097	-1.2612786	1.2927011	-0.14293652	-1.2834905	1.2772463	0.22050185	-1.3452393	1.3298559	0.035416746	-1.2358899	0.97135496	-0.21700702	-1.4227044	0.99095168	0.26478445	-1.0190408	0.85757353	-0.16899327	-1.3483796	0.76582619	0.3008502
11	0.04	-1.6016362	0.032241697	-0.03992766	-0.83362797	0.11399236	0.1530534	-1.6995348	0.10377724	-0.05887203	-0.9626489	0.07951817	0.16560416	-1.6939745	0.11506903	0.026307942	-0.95372249	0.11251217	0.082143494	NaN	NaN	NaN	-0.99767675	0.036261277	0.092910513	-1.4762823	0.40511732	-0.07447093	-1.1056195	0.44232125	0.17970073	-1.4831285	0.40597615	0.045708343	-1.1217494	0.42014612	0.048735152	-1.3473465	0.76616715	-0.12929327	-1.2870966	0.76339016	0.21769653	-1.2554649	0.80260918	-0.098779437	-1.2122344	0.81150503	0.14608578	-1.4122102	0.8914846	0.056313781	-1.2545202	1.2917522	-0.1421427	-1.2769297	1.27624	0.22123207	-1.3385437	1.3287613	0.036306484	-1.2286834	0.97039612	-0.21605047	-1.4162533	0.98994168	0.26521369	-1.0115336	0.85737339	-0.16760736	-1.3423572	0.76473793	0.30155908
12	0.044	-1.6014259	0.032262536	-0.040019197	-0.8291366	0.11083518	0.15053176	-1.6976656	0.10569842	-0.059436469	-0.95811812	0.0773051	0.16419258	-1.6922518	0.11704742	0.025615825	-0.94951521	0.10999357	0.080593109	NaN	NaN	NaN	-0.99416328	0.034136076	0.09200552	-1.4701111	0.40439149	-0.074739918	-1.0973034	0.44193031	0.17896712	-1.4767018	0.40512293	0.045479379	-1.1137946	0.42067068	0.048731322	-1.3407526	0.76518309	-0.12880628	-1.2775496	0.76333458	0.21833462	-1.2485985	0.80167972	-0.09868395	-1.2042694	0.8106595	0.14587197	-1.4046786	0.89035247	0.056969994	-1.2477102	1.2908419	-0.14131023	-1.2702865	1.2752774	0.22197992	-1.3318339	1.3277232	0.037161756	-1.2215511	0.96949785	-0.21506567	-1.4099133	0.98899669	0.26538763	-1.0041669	0.85712593	-0.1662825	-1.3362156	0.76370202	0.30228827
